<?xml version="1.0" standalone="no"?>
<!DOCTYPE svg PUBLIC "-//W3C//DTD SVG 20010904//EN"
 "http://www.w3.org/TR/2001/REC-SVG-20010904/DTD/svg10.dtd">
<svg version="1.0" xmlns="http://www.w3.org/2000/svg"
 width="500.000000pt" height="500.000000pt" viewBox="0 0 500.000000 500.000000"
 preserveAspectRatio="xMidYMid meet">

<g transform="translate(0.000000,500.000000) scale(0.100000,-0.100000)"
fill="#000000" stroke="none">
<path d="M4885 4150 c-38 -10 -173 -41 -300 -70 -463 -104 -481 -109 -543
-150 -54 -37 -95 -79 -135 -142 -25 -39 -67 -160 -67 -192 l0 -26 -540 0 -540
0 0 -269 c0 -218 3 -271 14 -280 10 -9 124 -11 430 -9 367 3 415 1 410 -12
-20 -49 -64 -186 -64 -201 0 -11 -11 -18 -37 -23 -21 -3 -304 -6 -629 -6
l-591 0 -7 -307 c-3 -170 -3 -344 2 -388 l7 -80 95 -3 c123 -4 822 16 844 24
9 3 16 1 16 -6 0 -6 -55 -161 -121 -343 -114 -310 -122 -338 -127 -420 -7
-142 27 -203 138 -245 118 -44 792 -276 864 -297 123 -36 238 -5 319 84 69 77
92 137 181 471 19 74 60 230 91 345 31 116 70 262 87 325 57 217 248 935 283
1065 l35 130 0 523 0 522 -22 -1 c-13 0 -54 -9 -93 -19z m-570 -805 c0 -20 -8
-20 -494 -23 -300 -1 -499 2 -504 7 -5 5 -7 17 -4 25 6 15 59 16 504 14 490
-3 498 -3 498 -23z m-207 -122 c-3 -17 -31 -18 -393 -21 -228 -1 -393 2 -398
7 -28 28 12 31 399 31 371 0 395 -1 392 -17z m-283 -658 c0 -20 -8 -20 -494
-23 -300 -1 -499 2 -504 7 -5 5 -7 17 -4 25 6 15 59 16 504 14 490 -3 498 -3
498 -23z m-550 -120 c0 -19 -8 -20 -219 -23 -130 -1 -224 2 -229 7 -5 5 -7 17
-4 26 6 13 34 15 229 13 215 -3 223 -4 223 -23z m544 -189 c8 -9 8 -16 2 -20
-11 -7 -1372 -8 -1379 -1 -2 2 -2 11 1 20 6 13 83 15 685 15 573 0 681 -2 691
-14z m-302 -119 c4 -5 0 -15 -11 -22 -15 -11 -116 -14 -525 -15 -280 0 -515 2
-524 6 -20 7 -22 30 -4 38 21 8 1055 2 1064 -7z"/>
<path d="M886 3676 c-77 -29 -128 -102 -141 -201 -7 -55 35 -287 62 -339 8
-15 10 -25 4 -22 -6 4 -15 -11 -22 -36 -11 -42 -10 -84 7 -368 7 -117 -13
-298 -42 -388 -17 -50 -21 -55 -156 -150 -348 -245 -404 -284 -416 -296 -11
-11 10 -45 113 -189 89 -126 133 -179 150 -183 14 -3 25 -10 25 -15 0 -9 -22
-64 -124 -319 -26 -63 -45 -124 -44 -134 2 -13 21 -28 54 -42 42 -19 55 -20
75 -11 21 11 115 172 342 587 13 24 159 130 178 130 5 0 9 -6 9 -13 0 -11 23
-193 69 -556 11 -84 26 -163 34 -174 12 -18 23 -21 68 -19 64 3 106 18 113 41
15 46 28 333 29 624 l2 329 35 28 c19 15 60 45 91 66 292 203 508 361 505 370
-2 6 -77 112 -166 237 -101 141 -166 224 -174 220 -17 -10 -152 -103 -249
-172 -49 -35 -91 -60 -95 -56 -3 3 4 45 16 93 37 146 26 214 -44 267 -46 35
-121 185 -92 185 23 0 23 7 -2 47 -46 76 -51 239 -8 295 9 12 30 18 67 19 40
2 61 9 80 25 25 22 25 24 11 51 -26 49 -93 74 -217 79 -79 3 -118 1 -147 -10z
m117 -782 l77 -7 0 -159 c0 -131 5 -183 26 -294 l27 -134 31 23 c17 13 56 41
86 62 30 21 108 76 173 122 109 79 145 94 154 67 2 -6 -81 -71 -184 -144 -280
-198 -255 -175 -247 -218 4 -20 8 -39 10 -41 1 -1 66 42 143 97 146 106 176
120 176 88 0 -13 -47 -51 -152 -125 -84 -58 -152 -112 -152 -120 -1 -8 8 -34
20 -58 18 -38 19 -48 9 -74 -35 -82 -145 -74 -168 12 l-7 31 -25 -20 c-76 -58
-162 -112 -170 -107 -20 12 -9 34 29 62 22 15 72 50 111 78 66 47 70 51 64 80
-3 16 -9 34 -14 38 -4 4 -62 -31 -129 -78 -99 -69 -125 -84 -137 -74 -20 17
-10 26 133 126 93 64 122 90 118 102 -4 9 -24 81 -46 161 -34 125 -79 404 -79
489 0 24 6 24 123 15z"/>
<path d="M186 859 c-16 -24 -22 -69 -8 -69 4 0 43 -21 87 -46 95 -54 126 -62
145 -39 12 15 11 22 -5 53 -11 19 -34 42 -50 51 -17 9 -44 26 -62 39 -49 35
-87 39 -107 11z"/>
<path d="M1076 764 c-12 -31 -6 -63 14 -74 12 -6 65 -9 127 -8 106 3 108 3
108 27 0 44 -41 62 -147 67 -81 3 -97 2 -102 -12z"/>
</g>
</svg>
